<svg xmlns="http://www.w3.org/2000/svg" xmlns:xlink="http://www.w3.org/1999/xlink">
  <defs>
    <symbol viewBox="-5 -4 32 32" id="icon-stackoverflow">
      <path d="M15 21h-10v-2h10v2zm6-11.665l-1.621-9.335-1.993.346 1.62 9.335 1.994-.346zm-5.964 6.937l-9.746-.975-.186 2.016 9.755.879.177-1.92zm.538-2.587l-9.276-2.608-.526 1.954 9.306 2.5.496-1.846zm1.204-2.413l-8.297-4.864-1.029 1.743 8.298 4.865 1.028-1.744zm1.866-1.467l-5.339-7.829-1.672 1.14 5.339 7.829 1.672-1.14zm-2.644 4.195v8h-12v-8h-2v10h16v-10h-2z" />
    </symbol>

    <symbol viewBox="0 0 32 32" id="icon-github">
      <path d="M 16 4 C 9.371094 4 4 9.371094 4 16 C 4 21.300781 7.4375 25.800781 12.207031 27.386719 C 12.808594 27.496094 13.027344 27.128906 13.027344 26.808594 C 13.027344 26.523438 13.015625 25.769531 13.011719 24.769531 C 9.671875 25.492188 8.96875 23.160156 8.96875 23.160156 C 8.421875 21.773438 7.636719 21.402344 7.636719 21.402344 C 6.546875 20.660156 7.71875 20.675781 7.71875 20.675781 C 8.921875 20.761719 9.554688 21.910156 9.554688 21.910156 C 10.625 23.746094 12.363281 23.214844 13.046875 22.910156 C 13.15625 22.132813 13.46875 21.605469 13.808594 21.304688 C 11.144531 21.003906 8.34375 19.972656 8.34375 15.375 C 8.34375 14.0625 8.8125 12.992188 9.578125 12.152344 C 9.457031 11.851563 9.042969 10.628906 9.695313 8.976563 C 9.695313 8.976563 10.703125 8.65625 12.996094 10.207031 C 13.953125 9.941406 14.980469 9.808594 16 9.804688 C 17.019531 9.808594 18.046875 9.941406 19.003906 10.207031 C 21.296875 8.65625 22.300781 8.976563 22.300781 8.976563 C 22.957031 10.628906 22.546875 11.851563 22.421875 12.152344 C 23.191406 12.992188 23.652344 14.0625 23.652344 15.375 C 23.652344 19.984375 20.847656 20.996094 18.175781 21.296875 C 18.605469 21.664063 18.988281 22.398438 18.988281 23.515625 C 18.988281 25.121094 18.976563 26.414063 18.976563 26.808594 C 18.976563 27.128906 19.191406 27.503906 19.800781 27.386719 C 24.566406 25.796875 28 21.300781 28 16 C 28 9.371094 22.628906 4 16 4 Z" />
    </symbol>

    <symbol viewBox="0 0 32 32" id="icon-linkedin">
      <path d="M 8.6425781 4 C 7.1835781 4 6 5.181625 6 6.640625 C 6 8.099625 7.182625 9.3085938 8.640625 9.3085938 C 10.098625 9.3085938 11.283203 8.099625 11.283203 6.640625 C 11.283203 5.182625 10.101578 4 8.6425781 4 z M 21.535156 11 C 19.316156 11 18.0465 12.160453 17.4375 13.314453 L 17.373047 13.314453 L 17.373047 11.310547 L 13 11.310547 L 13 26 L 17.556641 26 L 17.556641 18.728516 C 17.556641 16.812516 17.701266 14.960938 20.072266 14.960938 C 22.409266 14.960937 22.443359 17.145609 22.443359 18.849609 L 22.443359 26 L 26.994141 26 L 27 26 L 27 17.931641 C 27 13.983641 26.151156 11 21.535156 11 z M 6.3632812 11.310547 L 6.3632812 26 L 10.923828 26 L 10.923828 11.310547 L 6.3632812 11.310547 z" />
    </symbol>

    <symbol viewBox="0 0 48 48" id="icon-instagram">
      <path d="M 16.5 5 C 10.16639 5 5 10.16639 5 16.5 L 5 31.5 C 5 37.832757 10.166209 43 16.5 43 L 31.5 43 C 37.832938 43 43 37.832938 43 31.5 L 43 16.5 C 43 10.166209 37.832757 5 31.5 5 L 16.5 5 z M 16.5 8 L 31.5 8 C 36.211243 8 40 11.787791 40 16.5 L 40 31.5 C 40 36.211062 36.211062 40 31.5 40 L 16.5 40 C 11.787791 40 8 36.211243 8 31.5 L 8 16.5 C 8 11.78761 11.78761 8 16.5 8 z M 34 12 C 32.895 12 32 12.895 32 14 C 32 15.105 32.895 16 34 16 C 35.105 16 36 15.105 36 14 C 36 12.895 35.105 12 34 12 z M 24 14 C 18.495178 14 14 18.495178 14 24 C 14 29.504822 18.495178 34 24 34 C 29.504822 34 34 29.504822 34 24 C 34 18.495178 29.504822 14 24 14 z M 24 17 C 27.883178 17 31 20.116822 31 24 C 31 27.883178 27.883178 31 24 31 C 20.116822 31 17 27.883178 17 24 C 17 20.116822 20.116822 17 24 17 z"/>
    </symbol>

    <symbol viewBox="0 0 576 512" id="icon-eye">
      <path d="M572.52 241.4C518.29 135.59 410.93 64 288 64S57.68 135.64 3.48 241.41a32.35 32.35 0 0 0 0 29.19C57.71 376.41 165.07 448 288 448s230.32-71.64 284.52-177.41a32.35 32.35 0 0 0 0-29.19zM288 400a144 144 0 1 1 144-144 143.93 143.93 0 0 1-144 144zm0-240a95.31 95.31 0 0 0-25.31 3.79 47.85 47.85 0 0 1-66.9 66.9A95.78 95.78 0 1 0 288 160z"/>
    </symbol>

    <symbol viewBox="0 0 512 512" id="icon-moon">
      <path d="M283.211 512c78.962 0 151.079-35.925 198.857-94.792 7.068-8.708-.639-21.43-11.562-19.35-124.203 23.654-238.262-71.576-238.262-196.954 0-72.222 38.662-138.635 101.498-174.394 9.686-5.512 7.25-20.197-3.756-22.23A258.156 258.156 0 0 0 283.211 0c-141.309 0-256 114.511-256 256 0 141.309 114.511 256 256 256z" />
    </symbol>

    <symbol viewBox="0 0 512 512" id="icon-sun">
      <path d="M256 160c-52.9 0-96 43.1-96 96s43.1 96 96 96 96-43.1 96-96-43.1-96-96-96zm246.4 80.5l-94.7-47.3 33.5-100.4c4.5-13.6-8.4-26.5-21.9-21.9l-100.4 33.5-47.4-94.8c-6.4-12.8-24.6-12.8-31 0l-47.3 94.7L92.7 70.8c-13.6-4.5-26.5 8.4-21.9 21.9l33.5 100.4-94.7 47.4c-12.8 6.4-12.8 24.6 0 31l94.7 47.3-33.5 100.5c-4.5 13.6 8.4 26.5 21.9 21.9l100.4-33.5 47.3 94.7c6.4 12.8 24.6 12.8 31 0l47.3-94.7 100.4 33.5c13.6 4.5 26.5-8.4 21.9-21.9l-33.5-100.4 94.7-47.3c13-6.5 13-24.7.2-31.1zm-155.9 106c-49.9 49.9-131.1 49.9-181 0-49.9-49.9-49.9-131.1 0-181 49.9-49.9 131.1-49.9 181 0 49.9 49.9 49.9 131.1 0 181z" />
    </symbol>

    <symbol viewBox="0 0 48 48" id="icon-share">
      <path d="M38.1,31.2L19.4,24l18.7-7.2c1.5-0.6,2.3-2.3,1.7-3.9c-0.6-1.5-2.3-2.3-3.9-1.7l-26,10C8.8,21.6,8,22.8,8,24s0.8,2.4,1.9,2.8l26,10c0.4,0.1,0.7,0.2,1.1,0.2c1.2,0,2.3-0.7,2.8-1.9C40.4,33.5,39.6,31.8,38.1,31.2z" />
      <path d="M11 17A7 7 0 1 0 11 31 7 7 0 1 0 11 17zM37 7A7 7 0 1 0 37 21 7 7 0 1 0 37 7zM37 27A7 7 0 1 0 37 41 7 7 0 1 0 37 27z" />
    </symbol>

    <symbol viewBox="0 0 48 48" id="icon-facebookshare">
      <path fill="#039be5" d="M24 5A19 19 0 1 0 24 43A19 19 0 1 0 24 5Z" />
      <path fill="#fff" d="M26.572,29.036h4.917l0.772-4.995h-5.69v-2.73c0-2.075,0.678-3.915,2.619-3.915h3.119v-4.359c-0.548-0.074-1.707-0.236-3.897-0.236c-4.573,0-7.254,2.415-7.254,7.917v3.323h-4.701v4.995h4.701v13.729C22.089,42.905,23.032,43,24,43c0.875,0,1.729-0.08,2.572-0.194V29.036z" />
    </symbol> 
    
    <symbol viewBox="0 0 48 48" id="icon-twittershare">
      <path fill="#03a9f4" d="M24 4A20 20 0 1 0 24 44A20 20 0 1 0 24 4Z" />
      <path fill="#fff" d="M36,17.12c-0.882,0.391-1.999,0.758-3,0.88c1.018-0.604,2.633-1.862,3-3 c-0.951,0.559-2.671,1.156-3.793,1.372C31.311,15.422,30.033,15,28.617,15C25.897,15,24,17.305,24,20v2c-4,0-7.9-3.047-10.327-6 c-0.427,0.721-0.667,1.565-0.667,2.457c0,1.819,1.671,3.665,2.994,4.543c-0.807-0.025-2.335-0.641-3-1c0,0.016,0,0.036,0,0.057 c0,2.367,1.661,3.974,3.912,4.422C16.501,26.592,16,27,14.072,27c0.626,1.935,3.773,2.958,5.928,3c-1.686,1.307-4.692,2-7,2 c-0.399,0-0.615,0.022-1-0.023C14.178,33.357,17.22,34,20,34c9.057,0,14-6.918,14-13.37c0-0.212-0.007-0.922-0.018-1.13 C34.95,18.818,35.342,18.104,36,17.12" />
    </symbol>  

    <symbol viewBox="0 0 48 48" id="icon-linkedinshare">
      <path fill="#0288d1" d="M24 4A20 20 0 1 0 24 44A20 20 0 1 0 24 4Z" />
      <path fill="#fff" d="M14 19H18V34H14zM15.988 17h-.022C14.772 17 14 16.11 14 14.999 14 13.864 14.796 13 16.011 13c1.217 0 1.966.864 1.989 1.999C18 16.11 17.228 17 15.988 17zM35 24.5c0-3.038-2.462-5.5-5.5-5.5-1.862 0-3.505.928-4.5 2.344V19h-4v15h4v-8c0-1.657 1.343-3 3-3s3 1.343 3 3v8h4C35 34 35 24.921 35 24.5z" />
    </symbol>

    <symbol viewBox="0 0 48 48" id="icon-redditshare">
      <path fill="#FFF" d="M12.193 19.555c-1.94-1.741-4.79-1.727-6.365.029-1.576 1.756-1.301 5.023.926 6.632L12.193 19.555zM35.807 19.555c1.939-1.741 4.789-1.727 6.365.029 1.575 1.756 1.302 5.023-.927 6.632L35.807 19.555zM38.32 6.975A3.5 3.5 0 1 0 38.32 13.975 3.5 3.5 0 1 0 38.32 6.975z" />
      <path fill="#FFF" d="M24.085 15.665000000000001A18.085 12.946 0 1 0 24.085 41.557A18.085 12.946 0 1 0 24.085 15.665000000000001Z" />
      <g>
      <path fill="#D84315" d="M30.365 23.506A2.884 2.884 0 1 0 30.365 29.274 2.884 2.884 0 1 0 30.365 23.506zM17.635 23.506A2.884 2.884 0 1 0 17.635 29.274 2.884 2.884 0 1 0 17.635 23.506z"></path></g><g><path fill="#37474F" d="M24.002 34.902c-3.252 0-6.14-.745-8.002-1.902 1.024 2.044 4.196 4 8.002 4 3.802 0 6.976-1.956 7.998-4C30.143 34.157 27.254 34.902 24.002 34.902zM41.83 27.026l-1.17-1.621c.831-.6 1.373-1.556 1.488-2.623.105-.98-.157-1.903-.721-2.531-.571-.637-1.391-.99-2.307-.994-.927.013-1.894.365-2.646 1.041l-1.336-1.488c1.123-1.008 2.545-1.523 3.991-1.553 1.488.007 2.833.596 3.786 1.658.942 1.05 1.387 2.537 1.221 4.081C43.961 24.626 43.121 26.096 41.83 27.026zM6.169 27.026c-1.29-.932-2.131-2.401-2.306-4.031-.166-1.543.279-3.03 1.221-4.079.953-1.062 2.297-1.651 3.785-1.658.009 0 .018 0 .027 0 1.441 0 2.849.551 3.965 1.553l-1.336 1.488c-.753-.676-1.689-1.005-2.646-1.041-.916.004-1.735.357-2.306.994-.563.628-.826 1.55-.721 2.53.115 1.067.657 2.023 1.488 2.624L6.169 27.026zM25 16.84h-2c0-2.885 0-10.548 4.979-10.548 2.154 0 3.193 1.211 3.952 2.096.629.734.961 1.086 1.616 1.086h1.37v2h-1.37c-1.604 0-2.453-.99-3.135-1.785-.67-.781-1.198-1.398-2.434-1.398C25.975 8.292 25 11.088 25 16.84z"></path><path fill="#37474F" d="M24.085 16.95c9.421 0 17.085 5.231 17.085 11.661 0 6.431-7.664 11.662-17.085 11.662S7 35.042 7 28.611C7 22.181 14.664 16.95 24.085 16.95M24.085 14.95C13.544 14.95 5 21.066 5 28.611c0 7.546 8.545 13.662 19.085 13.662 10.54 0 19.085-6.116 19.085-13.662C43.17 21.066 34.625 14.95 24.085 14.95L24.085 14.95zM38.32 7.975c1.379 0 2.5 1.122 2.5 2.5s-1.121 2.5-2.5 2.5-2.5-1.122-2.5-2.5S36.941 7.975 38.32 7.975M38.32 5.975c-2.484 0-4.5 2.015-4.5 4.5s2.016 4.5 4.5 4.5c2.486 0 4.5-2.015 4.5-4.5S40.807 5.975 38.32 5.975L38.32 5.975z" />
      </g>
    </symbol>  
  </defs>
</svg>

